# xmcd
#
# Track frame offsets:
#	150
#	20294
#	47005
#	76251
#	101033
#	122463
#	142890
#	163373
#	182106
#	198735
#	213147
#	244081
#	260431
#	276632
#	300243
#
# Disc length: 4355 seconds
#
# Revision: 1
# Processed by: cddbd v1.5.2PL0 Copyright (c) Steve Scherf et al.
# Submitted via: EZCDAudioConverter 7.1.0.1
#
DISCID=cf11010f
DTITLE=Kenny Chesney - Live in No Shoes Nation
DYEAR=2017
DGENRE=Country
TTITLE0=Somewhere With You
TTITLE1=I Go Back
TTITLE2=One Step Up
TTITLE3=American Kids
TTITLE4=Kenny Chesney With Grace Potter - You And Tequila
TTITLE5=Young
TTITLE6=There Goes My Life
TTITLE7=Out Last Night
TTITLE8=Kenny Chesney With David Lee Murphy - Dust On The Bottle
TTITLE9=Coastal
TTITLE10=The Boys Of Fall
TTITLE11=Noise
TTITLE12=Old Blue Chair
TTITLE13=Kenny Chesney With Dave Matthews - Medley: The Joker - Three Little B
TTITLE13=irds
TTITLE14=Happy On The Hey Now (A Song For Kristi)
EXTD=
EXTT0=
EXTT1=
EXTT2=
EXTT3=
EXTT4=
EXTT5=
EXTT6=
EXTT7=
EXTT8=
EXTT9=
EXTT10=
EXTT11=
EXTT12=
EXTT13=
EXTT14=
PLAYORDER=
